<svg aria-hidden="true" style="position: absolute; width: 0; height: 0; overflow: hidden;" version="1.1" xmlns="http://www.w3.org/2000/svg" xmlns:xlink="http://www.w3.org/1999/xlink">
<defs>
<symbol id="icon-bookmark" viewBox="0 0 20 20">
<title>bookmark</title>
<path d="M14 2v17l-4-4-4 4v-17c0-0.553 0.585-1.020 1-1h6c0.689-0.020 1 0.447 1 1z"></path>
</symbol>
<symbol id="icon-chevron-thin-right" viewBox="0 0 20 20">
<title>chevron-thin-right</title>
<path d="M13.25 10l-7.141-7.42c-0.268-0.27-0.268-0.707 0-0.979 0.268-0.27 0.701-0.27 0.969 0l7.83 7.908c0.268 0.271 0.268 0.709 0 0.979l-7.83 7.908c-0.268 0.271-0.701 0.27-0.969 0s-0.268-0.707 0-0.979l7.141-7.417z"></path>
</symbol>
<symbol id="icon-aircraft-take-off" viewBox="0 0 20 20">
<title>aircraft-take-off</title>
<path d="M19.87 6.453c0.119 0.257 0.127 1.29-4.884 3.642l-4.913 2.306c-1.71 0.803-4.191 1.859-5.285 2.151-0.766 0.204-1.497-0.316-1.497-0.316s-2.206-1.975-2.792-2.419c-0.585-0.444-0.535-0.67 0.215-0.91 0.467-0.149 3.13 0.493 4.265 0.78 1.339-0.8 2.562-1.486 3.141-1.798-1.396-1.033-4.008-2.962-4.841-3.55-0.799-0.565 0.010-0.768 0.010-0.768 0.368-0.099 1.162-0.228 1.562-0.144 2.721 0.569 7.263 2.071 7.611 2.186 0.832-0.436 2.128-1.092 2.922-1.465 2.075-0.974 4.327-0.037 4.486 0.305z"></path>
</symbol>
<symbol id="icon-chat" viewBox="0 0 20 20">
<title>chat</title>
<path d="M5.8 12.2v-6.2h-3.8c-1.1 0-2 0.9-2 2v6c0 1.1 0.9 2 2 2h1v3l3-3h5c1.1 0 2-0.9 2-2v-1.82c-0.064 0.014-0.132 0.021-0.2 0.021l-7-0.001zM18 1h-9c-1.1 0-2 0.9-2 2v8h7l3 3v-3h1c1.1 0 2-0.899 2-2v-6c0-1.1-0.9-2-2-2z"></path>
</symbol>
<symbol id="icon-home" viewBox="0 0 20 20">
<title>home</title>
<path d="M18.672 11h-1.672v6c0 0.445-0.194 1-1 1h-4v-6h-4v6h-4c-0.806 0-1-0.555-1-1v-6h-1.672c-0.598 0-0.47-0.324-0.060-0.748l8.024-8.032c0.195-0.202 0.451-0.302 0.708-0.312 0.257 0.010 0.513 0.109 0.708 0.312l8.023 8.031c0.411 0.425 0.539 0.749-0.059 0.749z"></path>
</symbol>
<symbol id="icon-key" viewBox="0 0 20 20">
<title>key</title>
<path d="M17.691 4.725c-0.503-2.977-3.22-4.967-6.069-4.441s-5.256 2.816-4.753 5.795c0.107 0.641 0.408 1.644 0.763 2.365l-5.175 7.723c-0.191 0.285-0.299 0.799-0.242 1.141l0.333 1.971c0.058 0.342 0.372 0.572 0.7 0.514l1.516-0.281c0.328-0.059 0.744-0.348 0.924-0.639l2.047-3.311 0.018-0.022 1.386-0.256 2.39-3.879c0.785 0.139 1.912 0.092 2.578-0.031 2.848-0.526 4.087-3.67 3.584-6.649zM15.166 6.252c-0.784 1.17-1.584 0.346-2.703-0.475-1.119-0.818-2.135-1.322-1.352-2.492s2.326-1.455 3.447-0.635c1.12 0.819 1.391 2.432 0.608 3.602z"></path>
</symbol>
<symbol id="icon-location-pin" viewBox="0 0 20 20">
<title>location-pin</title>
<path d="M10 2.009c-2.762 0-5 2.229-5 4.99 0 4.774 5 11 5 11s5-6.227 5-11c0-2.76-2.238-4.99-5-4.99zM10 9.76c-1.492 0-2.7-1.209-2.7-2.7s1.208-2.7 2.7-2.7c1.49 0 2.699 1.209 2.699 2.7s-1.209 2.7-2.699 2.7z"></path>
</symbol>
<symbol id="icon-magnifying-glass" viewBox="0 0 20 20">
<title>magnifying-glass</title>
<path d="M17.545 15.467l-3.779-3.779c0.57-0.935 0.898-2.035 0.898-3.21 0-3.417-2.961-6.377-6.378-6.377s-6.186 2.769-6.186 6.186c0 3.416 2.961 6.377 6.377 6.377 1.137 0 2.2-0.309 3.115-0.844l3.799 3.801c0.372 0.371 0.975 0.371 1.346 0l0.943-0.943c0.371-0.371 0.236-0.84-0.135-1.211zM4.004 8.287c0-2.366 1.917-4.283 4.282-4.283s4.474 2.107 4.474 4.474c0 2.365-1.918 4.283-4.283 4.283s-4.473-2.109-4.473-4.474z"></path>
</symbol>
<symbol id="icon-map" viewBox="0 0 20 20">
<title>map</title>
<path d="M19.447 3.718l-6-3c-0.281-0.141-0.613-0.141-0.895 0l-5.63 2.815-5.606-1.869c-0.306-0.102-0.64-0.051-0.901 0.138s-0.415 0.49-0.415 0.811v13.001c0 0.379 0.214 0.725 0.553 0.894l6 3c0.141 0.070 0.294 0.106 0.447 0.106s0.307-0.035 0.447-0.106l5.63-2.814 5.606 1.869c0.305 0.1 0.64 0.049 0.901-0.139s0.415-0.49 0.415-0.81v-13.002c0.001-0.379-0.213-0.725-0.552-0.894zM8 5.231l4-2v11.763l-4 2v-11.763zM2 4l4 1.333v11.661l-4-2v-10.994zM18 16.227l-4-1.334v-11.662l4 2v10.996z"></path>
</symbol>
<symbol id="icon-star" viewBox="0 0 20 20">
<title>star</title>
<path d="M10 1.3l2.388 6.722h6.412l-5.232 3.948 1.871 6.928-5.439-4.154-5.438 4.154 1.87-6.928-5.233-3.948h6.412l2.389-6.722z"></path>
</symbol>
<symbol id="icon-lightbulb" viewBox="0 0 22 32">
<title>lightbulb</title>
<path d="M11 0c-5.29 0-11 4.206-11 11 0 3.353 1.334 6.174 3.896 8.312 0.027 0.034 0.058 0.063 0.092 0.088 1.901 2.062 1.997 2.454 2.010 3.361 0.006 0.359 0.003 0.465 0 0.523l-0.004 0.209c-0.015 0.452-0.038 1.209 0.899 1.495l8.094 1.781c0.036 0.008 0.072 0.012 0.107 0.012 0.23 0 0.437-0.159 0.488-0.393 0.060-0.27-0.111-0.537-0.381-0.596l-8.055-1.771c-0.155-0.047-0.168-0.051-0.154-0.498l0.003-0.191c0 0 0.010-0.078 0.002-0.586-0.019-1.269-0.295-1.882-2.309-4.059-0.039-0.048-0.086-0.088-0.138-0.118-2.356-2.003-3.55-4.549-3.55-7.569 0-6.177 5.19-10 10-10 4.916 0 10 3.741 10 10 0 3.978-1.928 6.171-3.518 7.551-0.055 0.026-0.104 0.063-0.147 0.109-2.037 2.204-2.313 2.817-2.332 4.086 0 0.030-0.001 0.065 0 0.103l-0.001 0.035c-0.003 0.076-0.014 0.118-0.013 0.134-0.034-0.005-0.117-0.018-0.117-0.018l-4.195-0.987c-0.272-0.062-0.538 0.104-0.601 0.372s0.103 0.538 0.372 0.602l4.144 0.972c0.055 0.020 0.553 0.182 0.973-0.113 0.183-0.129 0.396-0.382 0.434-0.866l0.003-0.047c0.001-0.032 0.002-0.065 0.002-0.099 0-0.009 0-0.018-0.001-0.026l0.001-0.046c0.013-0.902 0.107-1.294 2.005-3.356 0.009-0.007 0.019-0.014 0.027-0.022 2.667-2.241 3.964-4.984 3.964-8.384 0-6.885-5.593-11-11-11zM15 29.5c0.229 0 0.435-0.157 0.487-0.39 0.062-0.269-0.107-0.537-0.377-0.598l-8-1.814c-0.271-0.060-0.537 0.108-0.598 0.377-0.062 0.269 0.107 0.537 0.377 0.598l8 1.814c0.038 0.009 0.075 0.013 0.111 0.013zM7.609 29.554c-0.271-0.060-0.536 0.109-0.598 0.378-0.060 0.27 0.109 0.537 0.379 0.597l6.5 1.458c0.038 0.009 0.074 0.013 0.11 0.013 0.229 0 0.436-0.158 0.488-0.391 0.060-0.27-0.109-0.537-0.379-0.597l-6.5-1.458z"></path>
</symbol>
<symbol id="icon-lamp" viewBox="0 0 32 32">
<title>lamp</title>
<path d="M17.747 14.017c-1.25 0.562-4.022-0.815-4.022-0.815-3.248-1.947 1.22 6.073 1.22 6.073s0.093 2.503 0.655 2.815c4.687-6.563 3.397-8.636 2.147-8.073zM16.060 20.24c-0.379 0-1.972-4.779-1.784-5.779 1.251 0.125 2.409 0.597 3.097 0.222 1.937-0.878-0.876 5.557-1.313 5.557zM19.952 23.947c0.115-7.305 4.046-10.116 4.046-14.466 0-3.712-2.54-8.45-7.87-8.45-5.329 0-8.126 4.533-8.126 8.484 0 4.436 3.993 7.224 3.993 14.478h4.043c0 0 3.798-0.046 3.914-0.046zM12.809 23.020c0-6.771-3.868-9.373-3.868-13.513 0-3.688 2.51-7.556 7.173-7.556s6.948 4.060 6.948 7.524c0 4.060-3.814 6.742-3.916 13.56-0.102 0-3.111-0.016-3.111-0.016h-3.226zM19.505 25.014h-7c-0.276 0-0.5 0.224-0.5 0.5s0.224 0.5 0.5 0.5h7c0.275 0 0.5-0.224 0.5-0.5s-0.225-0.5-0.5-0.5zM19.505 27.014h-7c-0.276 0-0.5 0.224-0.5 0.5s0.224 0.5 0.5 0.5h7c0.275 0 0.5-0.224 0.5-0.5s-0.225-0.5-0.5-0.5zM12.997 29.043c0 0 0 0.334 0 0.9s0.444 1.025 0.992 1.025h4.031c0.549 0 0.992-0.459 0.992-1.025s-0.062-0.9-0.062-0.9h-5.953z"></path>
</symbol>
</defs>
</svg>
